<mxfile host="Electron" modified="2023-11-22T22:45:24.479Z" agent="Mozilla/5.0 (X11; Linux x86_64) AppleWebKit/537.36 (KHTML, like Gecko) draw.io/22.0.3 Chrome/114.0.5735.289 Electron/25.8.4 Safari/537.36" etag="fFNK5-vX3BPkVFMkIiV3" version="22.0.3" type="device">
  <diagram name="Page-1" id="Wyd1ewl4OVxXYW8Rz5es">
    <mxGraphModel dx="819" dy="497" grid="1" gridSize="10" guides="1" tooltips="1" connect="1" arrows="1" fold="1" page="1" pageScale="1" pageWidth="850" pageHeight="1100" math="0" shadow="0">
      <root>
        <mxCell id="0" />
        <mxCell id="1" parent="0" />
        <mxCell id="EN0-5gD7dwARUZzOyyuL-6" style="edgeStyle=orthogonalEdgeStyle;rounded=0;orthogonalLoop=1;jettySize=auto;html=1;entryX=0;entryY=0.5;entryDx=0;entryDy=0;" parent="1" source="EN0-5gD7dwARUZzOyyuL-1" target="EN0-5gD7dwARUZzOyyuL-3" edge="1">
          <mxGeometry relative="1" as="geometry" />
        </mxCell>
        <mxCell id="EN0-5gD7dwARUZzOyyuL-1" value="ParitelTelemetryAP" style="rounded=0;whiteSpace=wrap;html=1;" parent="1" vertex="1">
          <mxGeometry x="150" y="240" width="120" height="40" as="geometry" />
        </mxCell>
        <mxCell id="EN0-5gD7dwARUZzOyyuL-7" style="edgeStyle=orthogonalEdgeStyle;rounded=0;orthogonalLoop=1;jettySize=auto;html=1;entryX=0;entryY=0.5;entryDx=0;entryDy=0;" parent="1" source="EN0-5gD7dwARUZzOyyuL-2" target="EN0-5gD7dwARUZzOyyuL-4" edge="1">
          <mxGeometry relative="1" as="geometry" />
        </mxCell>
        <mxCell id="EN0-5gD7dwARUZzOyyuL-2" value="ESRT" style="rounded=0;whiteSpace=wrap;html=1;" parent="1" vertex="1">
          <mxGeometry x="150" y="320" width="120" height="40" as="geometry" />
        </mxCell>
        <mxCell id="EN0-5gD7dwARUZzOyyuL-23" style="edgeStyle=orthogonalEdgeStyle;rounded=0;orthogonalLoop=1;jettySize=auto;html=1;entryX=0;entryY=0.5;entryDx=0;entryDy=0;" parent="1" source="EN0-5gD7dwARUZzOyyuL-3" target="EN0-5gD7dwARUZzOyyuL-8" edge="1">
          <mxGeometry relative="1" as="geometry">
            <Array as="points">
              <mxPoint x="540" y="260" />
              <mxPoint x="540" y="300" />
            </Array>
          </mxGeometry>
        </mxCell>
        <mxCell id="EN0-5gD7dwARUZzOyyuL-3" value="conv_TeleAP_to_TeleGen" style="rounded=0;whiteSpace=wrap;html=1;" parent="1" vertex="1">
          <mxGeometry x="320" y="240" width="200" height="40" as="geometry" />
        </mxCell>
        <mxCell id="EN0-5gD7dwARUZzOyyuL-24" style="edgeStyle=orthogonalEdgeStyle;rounded=0;orthogonalLoop=1;jettySize=auto;html=1;entryX=0;entryY=0.5;entryDx=0;entryDy=0;" parent="1" source="EN0-5gD7dwARUZzOyyuL-4" target="EN0-5gD7dwARUZzOyyuL-8" edge="1">
          <mxGeometry relative="1" as="geometry">
            <Array as="points">
              <mxPoint x="540" y="340" />
              <mxPoint x="540" y="300" />
            </Array>
          </mxGeometry>
        </mxCell>
        <mxCell id="EN0-5gD7dwARUZzOyyuL-4" value="conv_ESRT_to_TeleGen" style="rounded=0;whiteSpace=wrap;html=1;" parent="1" vertex="1">
          <mxGeometry x="320" y="320" width="200" height="40" as="geometry" />
        </mxCell>
        <mxCell id="EN0-5gD7dwARUZzOyyuL-11" style="edgeStyle=orthogonalEdgeStyle;rounded=0;orthogonalLoop=1;jettySize=auto;html=1;entryX=0;entryY=0.5;entryDx=0;entryDy=0;" parent="1" source="EN0-5gD7dwARUZzOyyuL-8" target="EN0-5gD7dwARUZzOyyuL-10" edge="1">
          <mxGeometry relative="1" as="geometry" />
        </mxCell>
        <mxCell id="EN0-5gD7dwARUZzOyyuL-13" style="edgeStyle=orthogonalEdgeStyle;rounded=0;orthogonalLoop=1;jettySize=auto;html=1;entryX=0;entryY=0.5;entryDx=0;entryDy=0;" parent="1" source="EN0-5gD7dwARUZzOyyuL-8" target="EN0-5gD7dwARUZzOyyuL-12" edge="1">
          <mxGeometry relative="1" as="geometry" />
        </mxCell>
        <mxCell id="EN0-5gD7dwARUZzOyyuL-8" value="ParitelTelemetryGen" style="rounded=0;whiteSpace=wrap;html=1;" parent="1" vertex="1">
          <mxGeometry x="580" y="280" width="140" height="40" as="geometry" />
        </mxCell>
        <mxCell id="EN0-5gD7dwARUZzOyyuL-10" value="Навигационный трекинг" style="rounded=0;whiteSpace=wrap;html=1;" parent="1" vertex="1">
          <mxGeometry x="760" y="280" width="120" height="40" as="geometry" />
        </mxCell>
        <mxCell id="EN0-5gD7dwARUZzOyyuL-12" value="Сохранение телеметрии как внешних данных в формате .PTD (Paritel Telemetry Data)" style="rounded=0;whiteSpace=wrap;html=1;" parent="1" vertex="1">
          <mxGeometry x="760" y="340" width="120" height="90" as="geometry" />
        </mxCell>
        <mxCell id="EN0-5gD7dwARUZzOyyuL-14" value="" style="endArrow=none;dashed=1;html=1;dashPattern=1 3;strokeWidth=2;rounded=0;" parent="1" edge="1">
          <mxGeometry width="50" height="50" relative="1" as="geometry">
            <mxPoint x="30" y="300" as="sourcePoint" />
            <mxPoint x="270" y="299.8" as="targetPoint" />
          </mxGeometry>
        </mxCell>
        <mxCell id="EN0-5gD7dwARUZzOyyuL-15" value="Использование реальной камеры + телеметрия по Eth" style="text;html=1;strokeColor=none;fillColor=none;align=center;verticalAlign=middle;whiteSpace=wrap;rounded=0;" parent="1" vertex="1">
          <mxGeometry x="30" y="230" width="110" height="60" as="geometry" />
        </mxCell>
        <mxCell id="EN0-5gD7dwARUZzOyyuL-16" value="Использование тестового датасета + телеметрия в файлах ESRT" style="text;html=1;strokeColor=none;fillColor=none;align=center;verticalAlign=middle;whiteSpace=wrap;rounded=0;" parent="1" vertex="1">
          <mxGeometry x="30" y="310" width="110" height="60" as="geometry" />
        </mxCell>
        <mxCell id="EN0-5gD7dwARUZzOyyuL-17" value="Универсальная c++ структура с телеметрией" style="text;html=1;strokeColor=none;fillColor=none;align=center;verticalAlign=middle;whiteSpace=wrap;rounded=0;" parent="1" vertex="1">
          <mxGeometry x="595" y="220" width="110" height="60" as="geometry" />
        </mxCell>
        <mxCell id="EN0-5gD7dwARUZzOyyuL-18" value="" style="endArrow=classic;html=1;rounded=0;entryX=0.5;entryY=0;entryDx=0;entryDy=0;" parent="1" target="EN0-5gD7dwARUZzOyyuL-3" edge="1">
          <mxGeometry width="50" height="50" relative="1" as="geometry">
            <mxPoint x="420" y="170" as="sourcePoint" />
            <mxPoint x="410" y="170" as="targetPoint" />
          </mxGeometry>
        </mxCell>
        <mxCell id="EN0-5gD7dwARUZzOyyuL-21" value="" style="rounded=0;whiteSpace=wrap;html=1;fillColor=none;dashed=1;" parent="1" vertex="1">
          <mxGeometry x="290" y="220" width="270" height="160" as="geometry" />
        </mxCell>
        <mxCell id="EN0-5gD7dwARUZzOyyuL-19" value="Камера" style="rounded=0;whiteSpace=wrap;html=1;" parent="1" vertex="1">
          <mxGeometry x="150" y="180" width="120" height="40" as="geometry" />
        </mxCell>
        <mxCell id="EN0-5gD7dwARUZzOyyuL-20" value="frameNumber (порядковый номер кадра)" style="rounded=0;whiteSpace=wrap;html=1;" parent="1" vertex="1">
          <mxGeometry x="360" y="130" width="120" height="50" as="geometry" />
        </mxCell>
        <mxCell id="EN0-5gD7dwARUZzOyyuL-26" value="paritel telemetry multiplexor" style="rounded=0;whiteSpace=wrap;html=1;" parent="1" vertex="1">
          <mxGeometry x="540" y="120" width="120" height="50" as="geometry" />
        </mxCell>
        <mxCell id="EN0-5gD7dwARUZzOyyuL-27" style="rounded=0;orthogonalLoop=1;jettySize=auto;html=1;entryX=0.852;entryY=0;entryDx=0;entryDy=0;entryPerimeter=0;" parent="1" source="EN0-5gD7dwARUZzOyyuL-26" target="EN0-5gD7dwARUZzOyyuL-21" edge="1">
          <mxGeometry relative="1" as="geometry" />
        </mxCell>
      </root>
    </mxGraphModel>
  </diagram>
</mxfile>
